<?xml version="1.0" encoding="UTF-8"?>
<svg viewBox="0 0 756 665" xmlns="http://www.w3.org/2000/svg">
 <g transform="matrix(1.1883 0 0 1.1883 130.95 -160.68)" stroke-width=".502">
  <path d="m47.801 142.2c-155.83 1.7357-128.14 79.249-127.51 80.897-1.4714 1.1875-19.214 12.39-19.428 16.278 0.35142 2.003 1.1671 3.0421 1.5682 3.467-1.4013 0.12631-5.879 0.78299-4.6264 8.1883 1.367 8.0812 6.1361 9.7137 8.2208 11.03 12.636 7.3203 72.188 0.96289 99.825 23.053-22.367 48.235-8.0919 94.951 40.492 118.47 1.4481-7.8904-5.2503-50.834 22.804-75.163-10.949-16.367-9.2291-19.104-9.1628-19.083 9.7324 8.5076 83.592 47.032 127.18 66.5 22.883 10.273 72.073 40.193 86.926 46.537 14.858 6.3242 23.454 9.5978 35.656 22.692 15 16.119 61.904 87.423 77.668 138.29-39.658 3.1234-91.711 57.519-87.92 96.837 0.18866 0.20752 23.56-16.547 39.595-17.232 17.107 0.69171 33.751 4.2034 52.097 2.3407s42.68-3.9185 52.949-2.3465c39.904 3.858 52.452 16.731 71.928 28.592-2.151-31.153-1.3534-42.69-28.431-70.793-32.456-33.999-61.28-29.158-64.095-52.915-1.0339-7.5524-3.9615-187.93-105.09-302.68-42.537-47.101-6.7916-56.983-6.5316-56.983 0.26514 0-7.8185-17.939-20.163-22.584-11.819-4.8271-39.469-0.64403-62.659 3.0813-9.5655-5.0346-78.955-46.718-181.29-46.474z" fill="#bfbfbf" stroke="#6fd7ff"/>
  <g stroke="#43a4d7">
   <path d="m26.895 204.19c4.547 2.0598 13.212-0.54974 17.245-3.6476 3.6629-2.9516-0.8067-4.8384-3.5718-6.0483-3.6758-1.6084-13.783-2.2562-13.673 9.6959z" fill="#00f"/>
   <g fill="#7f7f7f">
    <path d="m-46.304 159.01c-29.472 14.155-41.302 37.499-33.891 63.854 16.714-10.975 43.171-12.38 68.274-10.416-20.254-6.1458-44.816-4.3886-60.779-2.7924-5.9064-14.395 5.1016-39.136 26.396-50.646z"/>
    <path d="m33.822 213.14c-32.568 0.1183-57.176 14.134-75.688 24.224-12.787 6.9689-22.597 11.925-37.558 10.923-15.213-1.4641-17.067-2.9013-20.512-4.7939-0.10353-0.056885-3.4505 1.5492-2.4296 7.0502 0.86847 4.6794 1.6131 7.9528 8.553 11.788 15.208 7.4416 69.804 0.35431 99.606 22.751-18.45 38.206-16.498 90.816 40.749 118.67 1.4583-7.8854-5.3208-50.997 22.738-75.331-4.719-7.3317-8.8325-14.279-9.3693-18.816 25.012 17.374 83.023 46.457 126.7 66.314 15.824 7.194 73.919 41.485 97.717 51.162 27.228 11.072 41.211 41.083 47.454 49.822 31.924 44.692 53.21 95.802 55.545 106.42-57.218 10.263-93.798 74.063-88.14 97.188 6.6869-3.6745 26.086-18.02 43.203-17.314 17.117 0.70154 27.041 3.8011 45.438 2.6995 18.94-1.134 31.766-4.5701 57.028-2.4887 39.339 3.2412 48.402 15.421 71.486 28.405 0.74463-44.387-21.055-70.912-61.37-95.934-9.8368-6.1053-41.352-12.351-48.222-24.418-4.8978-8.6034-14.57-85.736-68.677-167.54-73.118-110.55-145.45-136.02-203.5-163.77-30.53-15-74.088-27.106-100.75-27.009z"/>
   </g>
  </g>
  <path d="m103.58 270.89c28.838 27.616 92.077 96.686 139.68 89.128 0 0-36.917-19.767-47.569-52.411-2.8401-8.7045-11.783-19.803-45.056-33.897-5.5492-2.3505-47.046-16.163-47.052-2.8197z" fill="#bfbfbf" stroke="#6fd7ff"/>
 </g>
</svg>
